<mxfile host="app.diagrams.net" agent="Mozilla/5.0 (Windows NT 10.0; Win64; x64) AppleWebKit/537.36 (KHTML, like Gecko) Chrome/135.0.0.0 Safari/537.36" version="26.2.14">
  <diagram name="Página-1" id="CjhgGWkMq8wMEJQ50gEL">
    <mxGraphModel dx="872" dy="473" grid="1" gridSize="10" guides="1" tooltips="1" connect="1" arrows="1" fold="1" page="1" pageScale="1" pageWidth="1169" pageHeight="827" math="0" shadow="0">
      <root>
        <mxCell id="0" />
        <mxCell id="1" parent="0" />
        <mxCell id="DQ5Q1835Pn47U-g5P0Fx-28" value="" style="rounded=0;whiteSpace=wrap;html=1;fillColor=none;" parent="1" vertex="1">
          <mxGeometry x="225" y="20" width="720" height="760" as="geometry" />
        </mxCell>
        <mxCell id="DQ5Q1835Pn47U-g5P0Fx-7" value="&lt;font style=&quot;font-size: 16px;&quot;&gt;Companhia Aérea&lt;/font&gt;" style="swimlane;whiteSpace=wrap;html=1;fillColor=#CCE5FF;startSize=30;" parent="1" vertex="1">
          <mxGeometry x="324" y="84" width="190" height="216" as="geometry" />
        </mxCell>
        <mxCell id="DQ5Q1835Pn47U-g5P0Fx-11" value="&lt;div style=&quot;line-height: 180%;&quot;&gt;&lt;font style=&quot;line-height: 180%; font-size: 16px;&quot;&gt;id&lt;/font&gt;&lt;/div&gt;&lt;div style=&quot;line-height: 180%;&quot;&gt;&lt;span style=&quot;font-size: 16px; background-color: transparent; color: light-dark(rgb(0, 0, 0), rgb(255, 255, 255));&quot;&gt;cnpj&lt;/span&gt;&lt;/div&gt;&lt;div style=&quot;line-height: 180%;&quot;&gt;&lt;div style=&quot;line-height: 21.6px;&quot;&gt;&lt;font style=&quot;line-height: 28.8px; font-size: 16px;&quot;&gt;razao_social&lt;/font&gt;&lt;/div&gt;&lt;/div&gt;&lt;div style=&quot;line-height: 180%;&quot;&gt;&lt;div&gt;&lt;span style=&quot;background-color: transparent; color: light-dark(rgb(0, 0, 0), rgb(255, 255, 255)); line-height: 180%;&quot;&gt;&lt;font style=&quot;font-size: 16px;&quot;&gt;nome_fantasia&lt;/font&gt;&lt;/span&gt;&lt;/div&gt;&lt;div&gt;&lt;font style=&quot;line-height: 180%; font-size: 16px;&quot;&gt;sigla_companhia&lt;/font&gt;&lt;/div&gt;&lt;div&gt;&lt;font style=&quot;line-height: 180%; font-size: 16px;&quot;&gt;representante-legal&lt;/font&gt;&lt;/div&gt;&lt;/div&gt;" style="text;html=1;align=left;verticalAlign=middle;whiteSpace=wrap;rounded=0;" parent="DQ5Q1835Pn47U-g5P0Fx-7" vertex="1">
          <mxGeometry x="10" y="42.5" width="140" height="155" as="geometry" />
        </mxCell>
        <mxCell id="DQ5Q1835Pn47U-g5P0Fx-8" value="&lt;font style=&quot;font-size: 16px;&quot;&gt;Usuário&lt;/font&gt;" style="swimlane;whiteSpace=wrap;html=1;fillColor=#CCE5FF;startSize=30;" parent="1" vertex="1">
          <mxGeometry x="649" y="80.5" width="170" height="223" as="geometry" />
        </mxCell>
        <mxCell id="DQ5Q1835Pn47U-g5P0Fx-13" value="&lt;div style=&quot;line-height: 180%;&quot;&gt;&lt;div&gt;&lt;font style=&quot;line-height: 180%; font-size: 16px;&quot;&gt;cpf&lt;/font&gt;&lt;/div&gt;&lt;div&gt;&lt;font style=&quot;line-height: 180%; font-size: 16px;&quot;&gt;nome&lt;/font&gt;&lt;/div&gt;&lt;div&gt;&lt;font style=&quot;line-height: 180%; font-size: 16px;&quot;&gt;cargo&lt;/font&gt;&lt;/div&gt;&lt;div&gt;&lt;font style=&quot;line-height: 180%; font-size: 16px;&quot;&gt;email&lt;/font&gt;&lt;/div&gt;&lt;div&gt;&lt;font style=&quot;line-height: 180%; font-size: 16px;&quot;&gt;senha&lt;/font&gt;&lt;/div&gt;&lt;div&gt;&lt;span style=&quot;font-size: 16px;&quot;&gt;telefone&lt;/span&gt;&lt;/div&gt;&lt;/div&gt;" style="text;html=1;align=left;verticalAlign=middle;whiteSpace=wrap;rounded=0;" parent="DQ5Q1835Pn47U-g5P0Fx-8" vertex="1">
          <mxGeometry x="10" y="42" width="130" height="168" as="geometry" />
        </mxCell>
        <mxCell id="DQ5Q1835Pn47U-g5P0Fx-9" value="&lt;font style=&quot;font-size: 16px;&quot;&gt;Voos&lt;/font&gt;" style="swimlane;whiteSpace=wrap;html=1;fillColor=#CCE5FF;startSize=30;strokeWidth=1;" parent="1" vertex="1">
          <mxGeometry x="309" y="414" width="220" height="340" as="geometry" />
        </mxCell>
        <mxCell id="DQ5Q1835Pn47U-g5P0Fx-14" value="&lt;div style=&quot;line-height: 180%;&quot;&gt;&lt;font style=&quot;line-height: 180%; font-size: 16px;&quot;&gt;id&lt;/font&gt;&lt;div&gt;&lt;font style=&quot;line-height: 180%; font-size: 16px;&quot;&gt;numero_voo&lt;/font&gt;&lt;/div&gt;&lt;div&gt;&lt;font style=&quot;line-height: 180%; font-size: 16px;&quot;&gt;dia_referencia&lt;/font&gt;&lt;/div&gt;&lt;div&gt;&lt;font style=&quot;line-height: 180%; font-size: 16px;&quot;&gt;aeroporto_partida&lt;/font&gt;&lt;/div&gt;&lt;div&gt;&lt;font style=&quot;line-height: 180%; font-size: 16px;&quot;&gt;sigla_aeroporto_partida&lt;/font&gt;&lt;/div&gt;&lt;div&gt;&lt;font style=&quot;line-height: 180%; font-size: 16px;&quot;&gt;aeroporto_destino&lt;/font&gt;&lt;/div&gt;&lt;div&gt;&lt;font style=&quot;line-height: 180%; font-size: 16px;&quot;&gt;sigla_&lt;span style=&quot;background-color: transparent; color: light-dark(rgb(0, 0, 0), rgb(255, 255, 255));&quot;&gt;aeroporto_destino&lt;/span&gt;&lt;/font&gt;&lt;/div&gt;&lt;div&gt;&lt;span style=&quot;background-color: transparent; color: light-dark(rgb(0, 0, 0), rgb(255, 255, 255));&quot;&gt;&lt;font style=&quot;line-height: 180%; font-size: 16px;&quot;&gt;situacao_voo&lt;/font&gt;&lt;/span&gt;&lt;/div&gt;&lt;div&gt;&lt;span style=&quot;background-color: transparent; color: light-dark(rgb(0, 0, 0), rgb(255, 255, 255));&quot;&gt;&lt;font style=&quot;line-height: 180%; font-size: 16px;&quot;&gt;situacao_partida&lt;/font&gt;&lt;/span&gt;&lt;/div&gt;&lt;div&gt;&lt;span style=&quot;background-color: transparent; color: light-dark(rgb(0, 0, 0), rgb(255, 255, 255));&quot;&gt;&lt;font style=&quot;line-height: 180%; font-size: 16px;&quot;&gt;situacao_chegada&lt;/font&gt;&lt;/span&gt;&lt;/div&gt;&lt;/div&gt;" style="text;html=1;align=left;verticalAlign=middle;whiteSpace=wrap;rounded=0;" parent="DQ5Q1835Pn47U-g5P0Fx-9" vertex="1">
          <mxGeometry x="10" y="40" width="200" height="290" as="geometry" />
        </mxCell>
        <mxCell id="DQ5Q1835Pn47U-g5P0Fx-10" value="&lt;font style=&quot;font-size: 16px;&quot;&gt;Alertas&lt;/font&gt;" style="swimlane;whiteSpace=wrap;html=1;fillColor=#CCE5FF;startSize=25;" parent="1" vertex="1">
          <mxGeometry x="689" y="504" width="111" height="160" as="geometry" />
        </mxCell>
        <mxCell id="DQ5Q1835Pn47U-g5P0Fx-15" value="&lt;div style=&quot;line-height: 180%;&quot;&gt;&lt;font style=&quot;line-height: 180%; font-size: 16px;&quot;&gt;id&lt;/font&gt;&lt;div&gt;&lt;font style=&quot;line-height: 180%; font-size: 16px;&quot;&gt;data_hora&lt;/font&gt;&lt;/div&gt;&lt;div&gt;&lt;font style=&quot;line-height: 180%; font-size: 16px;&quot;&gt;tipo_alerta&lt;/font&gt;&lt;/div&gt;&lt;div&gt;&lt;font style=&quot;line-height: 180%; font-size: 16px;&quot;&gt;mensagem&lt;/font&gt;&lt;/div&gt;&lt;/div&gt;" style="text;html=1;align=left;verticalAlign=middle;whiteSpace=wrap;rounded=0;" parent="DQ5Q1835Pn47U-g5P0Fx-10" vertex="1">
          <mxGeometry x="10" y="40" width="90" height="110" as="geometry" />
        </mxCell>
        <mxCell id="DQ5Q1835Pn47U-g5P0Fx-18" value="" style="endArrow=none;html=1;rounded=0;entryX=0.5;entryY=0;entryDx=0;entryDy=0;exitX=0.5;exitY=1;exitDx=0;exitDy=0;strokeWidth=1;" parent="1" source="DQ5Q1835Pn47U-g5P0Fx-7" target="DQ5Q1835Pn47U-g5P0Fx-9" edge="1">
          <mxGeometry width="50" height="50" relative="1" as="geometry">
            <mxPoint x="599" y="274" as="sourcePoint" />
            <mxPoint x="479" y="344" as="targetPoint" />
          </mxGeometry>
        </mxCell>
        <mxCell id="DQ5Q1835Pn47U-g5P0Fx-19" value="" style="endArrow=none;html=1;rounded=0;entryX=1;entryY=0.5;entryDx=0;entryDy=0;strokeWidth=1;exitX=0;exitY=0.5;exitDx=0;exitDy=0;" parent="1" source="DQ5Q1835Pn47U-g5P0Fx-10" target="DQ5Q1835Pn47U-g5P0Fx-9" edge="1">
          <mxGeometry width="50" height="50" relative="1" as="geometry">
            <mxPoint x="649" y="564" as="sourcePoint" />
            <mxPoint x="429" y="404" as="targetPoint" />
          </mxGeometry>
        </mxCell>
        <mxCell id="DQ5Q1835Pn47U-g5P0Fx-21" value="" style="endArrow=none;html=1;rounded=0;entryX=1;entryY=0.5;entryDx=0;entryDy=0;strokeWidth=1;exitX=0;exitY=0.5;exitDx=0;exitDy=0;" parent="1" source="DQ5Q1835Pn47U-g5P0Fx-8" target="DQ5Q1835Pn47U-g5P0Fx-7" edge="1">
          <mxGeometry width="50" height="50" relative="1" as="geometry">
            <mxPoint x="674" y="574" as="sourcePoint" />
            <mxPoint x="539" y="574" as="targetPoint" />
          </mxGeometry>
        </mxCell>
        <mxCell id="DQ5Q1835Pn47U-g5P0Fx-22" value="&lt;font style=&quot;font-size: 18px;&quot;&gt;1&lt;/font&gt;" style="text;html=1;align=center;verticalAlign=middle;resizable=0;points=[];autosize=1;strokeColor=none;fillColor=none;" parent="1" vertex="1">
          <mxGeometry x="419" y="300" width="30" height="40" as="geometry" />
        </mxCell>
        <mxCell id="DQ5Q1835Pn47U-g5P0Fx-23" value="&lt;font style=&quot;font-size: 18px;&quot;&gt;N&lt;/font&gt;" style="text;html=1;align=center;verticalAlign=middle;resizable=0;points=[];autosize=1;strokeColor=none;fillColor=none;" parent="1" vertex="1">
          <mxGeometry x="414" y="374" width="40" height="40" as="geometry" />
        </mxCell>
        <mxCell id="DQ5Q1835Pn47U-g5P0Fx-24" value="&lt;font style=&quot;font-size: 18px;&quot;&gt;1&lt;/font&gt;" style="text;html=1;align=center;verticalAlign=middle;resizable=0;points=[];autosize=1;strokeColor=none;fillColor=none;" parent="1" vertex="1">
          <mxGeometry x="529" y="550" width="30" height="40" as="geometry" />
        </mxCell>
        <mxCell id="DQ5Q1835Pn47U-g5P0Fx-25" value="&lt;font style=&quot;font-size: 18px;&quot;&gt;1&lt;/font&gt;" style="text;html=1;align=center;verticalAlign=middle;resizable=0;points=[];autosize=1;strokeColor=none;fillColor=none;" parent="1" vertex="1">
          <mxGeometry x="659" y="550" width="30" height="40" as="geometry" />
        </mxCell>
        <mxCell id="DQ5Q1835Pn47U-g5P0Fx-26" value="&lt;font style=&quot;font-size: 18px;&quot;&gt;1&lt;/font&gt;" style="text;html=1;align=center;verticalAlign=middle;resizable=0;points=[];autosize=1;strokeColor=none;fillColor=none;" parent="1" vertex="1">
          <mxGeometry x="514" y="160" width="30" height="40" as="geometry" />
        </mxCell>
        <mxCell id="DQ5Q1835Pn47U-g5P0Fx-27" value="&lt;font style=&quot;font-size: 18px;&quot;&gt;N&lt;/font&gt;" style="text;html=1;align=center;verticalAlign=middle;resizable=0;points=[];autosize=1;strokeColor=none;fillColor=none;" parent="1" vertex="1">
          <mxGeometry x="609" y="160" width="40" height="40" as="geometry" />
        </mxCell>
      </root>
    </mxGraphModel>
  </diagram>
</mxfile>
